<?xml version="1.0" encoding="utf-8"?>
<!-- Generator: Adobe Illustrator 16.0.0, SVG Export Plug-In . SVG Version: 6.00 Build 0)  -->
<!DOCTYPE svg PUBLIC "-//W3C//DTD SVG 1.1//EN" "http://www.w3.org/Graphics/SVG/1.1/DTD/svg11.dtd">
<svg version="1.1" id="Capa_1" xmlns="http://www.w3.org/2000/svg" xmlns:xlink="http://www.w3.org/1999/xlink" x="0px" y="0px"
	 width="512px" height="512px" viewBox="0 0 512 512" enable-background="new 0 0 512 512" xml:space="preserve">
<g>
	<path fill="#FFFFFF" d="M435.5,265.65c0,6.369-5.211,11.582-11.58,11.582h-40.146c-3.861,0-7.528-1.932-9.652-5.213l-25.477-39.374
		l-30.496,162.9c-0.965,5.405-5.79,9.072-11.194,9.072c0,0,0,0-0.191,0c-5.404,0-10.231-3.475-11.388-8.878l-45.551-218.488
		l-28.759,149.391c-0.965,5.211-5.211,9.071-10.423,9.458c-5.211,0.386-10.037-2.703-11.774-7.721l-39.953-113.105l-19.688,54.236
		c-1.737,4.633-5.984,7.527-10.809,7.527H88.081c-6.37,0-11.581-5.211-11.581-11.581c0-6.369,5.211-11.58,11.581-11.58h32.04
		l27.986-77.204c1.737-4.632,5.983-7.721,10.809-7.721l0,0c4.825,0,9.265,3.282,10.809,7.914l36.479,103.454l31.654-163.867
		c0.965-5.405,5.791-9.072,11.195-9.072l0,0c5.405,0,10.23,3.667,11.388,8.879l45.356,217.716l25.091-134.335
		c0.965-4.632,4.439-8.3,9.072-9.265c4.632-0.965,9.456,1.157,11.965,5.018l37.831,58.483h34.164
		C430.288,254.069,435.5,259.281,435.5,265.65z"/>
</g>
</svg>
