<?xml version="1.0" encoding="utf-8"?>
<!-- Generator: Adobe Illustrator 16.0.0, SVG Export Plug-In . SVG Version: 6.00 Build 0)  -->
<!DOCTYPE svg PUBLIC "-//W3C//DTD SVG 1.1//EN" "http://www.w3.org/Graphics/SVG/1.1/DTD/svg11.dtd">
<svg version="1.1" id="Capa_1" xmlns="http://www.w3.org/2000/svg" xmlns:xlink="http://www.w3.org/1999/xlink" x="0px" y="0px"
	 width="512px" height="512px" viewBox="0 0 512 512" enable-background="new 0 0 512 512" xml:space="preserve">
<g>
	<path fill="#F4B459" d="M512,269.764c0,9.084-7.432,16.517-16.516,16.517h-57.256c-5.507,0-10.736-2.753-13.765-7.433
		l-36.335-56.155l-43.492,232.326c-1.377,7.708-8.259,12.938-15.966,12.938c0,0,0,0-0.274,0c-7.707,0-14.591-4.955-16.241-12.662
		l-64.963-311.604L206.177,356.75c-1.376,7.432-7.432,12.938-14.865,13.488c-7.432,0.551-14.314-3.854-16.792-11.012l-56.98-161.308
		L89.462,275.27c-2.477,6.606-8.534,10.735-15.416,10.735h-57.53C7.432,286.004,0,278.572,0,269.488s7.432-16.516,16.516-16.516
		H62.21l39.914-110.107c2.477-6.606,8.533-11.011,15.415-11.011l0,0c6.882,0,13.213,4.68,15.415,11.286l52.026,147.543
		L230.124,56.98c1.376-7.708,8.259-12.938,15.966-12.938l0,0c7.708,0,14.59,5.229,16.241,12.663l64.688,310.503l35.784-191.587
		c1.376-6.606,6.331-11.837,12.938-13.213c6.606-1.376,13.487,1.651,17.065,7.157l53.953,83.407h48.724
		C504.567,253.247,512,260.68,512,269.764z"/>
</g>
</svg>
