<?xml version="1.0" encoding="utf-8"?>
<!-- Generator: Adobe Illustrator 16.0.0, SVG Export Plug-In . SVG Version: 6.00 Build 0)  -->
<!DOCTYPE svg PUBLIC "-//W3C//DTD SVG 1.1//EN" "http://www.w3.org/Graphics/SVG/1.1/DTD/svg11.dtd">
<svg version="1.1" id="Layer_1" xmlns="http://www.w3.org/2000/svg" xmlns:xlink="http://www.w3.org/1999/xlink" x="0px" y="0px"
	 width="1000px" height="1000px" viewBox="0 0 1000 1000" enable-background="new 0 0 1000 1000" xml:space="preserve">
<g>
	<path fill="#FFFFFF" d="M802.817,413.48h-21.63v-64.888c0-23.879-19.379-43.258-43.258-43.258H197.185
		c-23.898-0.002-43.258,19.379-43.258,43.259l0,302.815c0,23.901,19.382,43.258,43.259,43.258h540.742
		c23.879,0,43.258-19.358,43.258-43.258v-64.89h21.629c23.88,0,43.259-19.36,43.259-43.258v-86.52
		C846.076,432.884,826.694,413.48,802.817,413.48z M716.298,608.148c0,11.959-9.669,21.628-21.629,21.628H240.446
		c-11.939,0-21.629-9.669-21.629-21.628V391.852c0-11.939,9.69-21.629,21.629-21.629h454.222c11.961,0,21.629,9.69,21.629,21.629
		L716.298,608.148L716.298,608.148z"/>
	<path fill="#FFFFFF" d="M348.573,413.48h-64.891c-11.938,0-21.63,9.691-21.63,21.63l0.001,129.777c0,11.96,9.69,21.63,21.629,21.63
		h64.89c11.96,0,21.629-9.67,21.629-21.63V435.11C370.202,423.215,360.534,413.48,348.573,413.48z M499.979,413.48h-64.89
		c-11.938,0-21.63,9.691-21.63,21.63v129.777c0,11.96,9.691,21.63,21.63,21.63h64.89c11.983,0,21.65-9.67,21.65-21.63V435.11
		C521.63,423.215,511.962,413.48,499.979,413.48z M651.408,413.48h-64.89c-11.961,0-21.63,9.691-21.63,21.63v129.777
		c0,11.96,9.669,21.63,21.63,21.63h64.89c11.938,0,21.629-9.67,21.629-21.63V435.11C673.037,423.215,663.35,413.48,651.408,413.48z"
		/>
</g>
</svg>
