<?xml version="1.0" encoding="utf-8"?>
<!-- Generator: Adobe Illustrator 16.0.0, SVG Export Plug-In . SVG Version: 6.00 Build 0)  -->
<!DOCTYPE svg PUBLIC "-//W3C//DTD SVG 1.1//EN" "http://www.w3.org/Graphics/SVG/1.1/DTD/svg11.dtd">
<svg version="1.1" id="Capa_1" xmlns="http://www.w3.org/2000/svg" xmlns:xlink="http://www.w3.org/1999/xlink" x="0px" y="0px"
	 width="512px" height="512px" viewBox="0 0 512 512" enable-background="new 0 0 512 512" xml:space="preserve">
<g>
	<path fill="#F4B459" d="M402.564,249.283V38.47c0-10.653-8.668-19.319-19.32-19.319H264.543c-10.653,0-19.319,8.667-19.319,19.319
		v38.269c0,3.551-2.889,6.439-6.44,6.439h-75.002c-3.551,0-6.44-2.889-6.44-6.439V38.47c0-10.653-8.667-19.319-19.319-19.319H19.319
		C8.667,19.151,0,27.817,0,38.47v319.39c0,10.651,8.667,19.317,19.319,19.317h248.628c3.359,64.353,56.77,115.673,121.939,115.673
		c67.333,0,122.112-54.777,122.112-122.111C512,307.688,463.963,255.645,402.564,249.283z M230.875,227.486v86.975h-59.193v-86.97
		h-32.306l61.909-69.809l61.902,69.805L230.875,227.486L230.875,227.486z M389.89,454.212c-46.026,0-83.472-37.444-83.472-83.474
		c0-46.025,37.444-83.473,83.472-83.473c46.026,0,83.474,37.445,83.474,83.473C473.361,416.766,435.916,454.212,389.89,454.212z"/>
	<path fill="#F4B459" d="M432.086,328.542c-7.545-7.545-19.777-7.545-27.322,0l-14.876,14.875l-14.876-14.875
		c-7.543-7.544-19.775-7.544-27.32,0s-7.545,19.776,0,27.321l14.875,14.875l-14.875,14.875c-7.545,7.543-7.545,19.775,0,27.322
		c3.771,3.772,8.716,5.657,13.659,5.657s9.89-1.887,13.66-5.657l14.876-14.875l14.876,14.875c3.772,3.771,8.718,5.657,13.66,5.657
		c4.943,0,9.89-1.887,13.66-5.657c7.545-7.545,7.545-19.777,0-27.322l-14.875-14.875l14.875-14.875
		C439.631,348.32,439.631,336.087,432.086,328.542z"/>
</g>
</svg>
