<?xml version="1.0" encoding="utf-8"?>
<!-- Generator: Adobe Illustrator 16.0.0, SVG Export Plug-In . SVG Version: 6.00 Build 0)  -->
<!DOCTYPE svg PUBLIC "-//W3C//DTD SVG 1.1//EN" "http://www.w3.org/Graphics/SVG/1.1/DTD/svg11.dtd">
<svg version="1.1" id="Layer_1" xmlns="http://www.w3.org/2000/svg" xmlns:xlink="http://www.w3.org/1999/xlink" x="0px" y="0px"
	 width="1000px" height="1000px" viewBox="0 0 1000 1000" enable-background="new 0 0 1000 1000" xml:space="preserve">
<g>
	<path fill="#FFFFFF" d="M770.946,527.514c0.193-4.97,0.27-9.992,0.27-15.002c0-1.108,0-2.512-0.036-3.512H140.208
		c-0.038,1-0.038,2.402-0.038,3.512c0,217.809,141.277,394.556,315.522,394.556c111.103,0,208.779-71.76,264.964-180.223
		c10.979,4.015,22.87,6.189,35.263,6.189c57.022,0,103.26-46.242,103.26-103.267C859.179,577.87,820.858,534.78,770.946,527.514z
		 M755.149,670.274c-3.684,0-7.263-0.434-10.706-1.238c10.513-28.808,17.895-59.139,21.74-90.543
		c20.386,4.951,35.52,23.321,35.52,45.228C801.703,649.429,780.857,670.274,755.149,670.274z"/>
	<path fill="#FFFFFF" d="M371.938,428.329c-36.064-115.042,4.781-133.284,24.018-163.575c54.959-86.511-4.818-163.23-23.674-171.606
		c24.133,104.218,15.833,127.7-13.155,166.596c-66.203,88.767-11.245,154.434,6.272,176.425
		C370.597,441.599,375.531,439.839,371.938,428.329z"/>
	<path fill="#FFFFFF" d="M471.373,428.329c-36.064-115.042,4.781-133.284,24.019-163.575c54.959-86.511-4.819-163.23-23.677-171.606
		c24.134,104.218,15.835,127.7-13.154,166.596c-66.202,88.767-11.241,154.434,6.275,176.425
		C470.033,441.599,474.97,439.839,471.373,428.329z"/>
	<path fill="#FFFFFF" d="M570.809,428.329c-36.062-115.042,4.783-133.284,24.021-163.575c54.96-86.511-4.818-163.23-23.676-171.606
		c24.137,104.218,15.836,127.7-13.154,166.596c-66.203,88.767-11.24,154.434,6.276,176.425
		C569.472,441.599,574.405,439.839,570.809,428.329z"/>
</g>
</svg>
