<?xml version="1.0" encoding="utf-8"?>
<!-- Generator: Adobe Illustrator 16.0.0, SVG Export Plug-In . SVG Version: 6.00 Build 0)  -->
<!DOCTYPE svg PUBLIC "-//W3C//DTD SVG 1.1//EN" "http://www.w3.org/Graphics/SVG/1.1/DTD/svg11.dtd">
<svg version="1.1" id="Layer_1" xmlns="http://www.w3.org/2000/svg" xmlns:xlink="http://www.w3.org/1999/xlink" x="0px" y="0px"
	 width="1000px" height="1000px" viewBox="0 0 1000 1000" enable-background="new 0 0 1000 1000" xml:space="preserve">
<g>
	<path fill="#FFFFFF" d="M490.725,132.179c-203.152,0-367.82,164.679-367.82,367.821c0,203.143,164.668,367.82,367.82,367.82
		c58.557,0,113.904-13.676,163.053-38.025l-11.504-16.253c-45.819,22.189-97.238,34.633-151.549,34.633
		C298.432,848.175,142.55,692.293,142.55,500c0-192.292,155.882-348.175,348.175-348.175c192.283,0,348.174,155.882,348.174,348.175
		c0,16.655-1.168,33.038-3.438,49.062l16.077,22.691c4.605-23.206,7.006-47.195,7.006-71.753
		C858.545,296.858,693.867,132.179,490.725,132.179z"/>
	<circle fill="#FFFFFF" cx="838.894" cy="552.487" r="38.2"/>
</g>
<g>
	<path fill="#FFFFFF" d="M603.786,492.462c-4.16,0-7.537,3.37-7.537,7.538v45.225c0,58.189-47.336,105.526-105.524,105.526
		c-58.19,0-105.524-47.337-105.524-105.526V500c0-4.168-3.378-7.538-7.538-7.538c-4.16,0-7.538,3.37-7.538,7.538v45.225
		c0,63.955,50.08,116.295,113.063,120.214v38.072h-37.687c-4.161,0-7.537,3.369-7.537,7.537s3.376,7.537,7.537,7.537h90.449
		c4.16,0,7.536-3.369,7.536-7.537s-3.376-7.537-7.535-7.537h-37.689v-38.072c62.984-3.919,113.062-56.265,113.062-120.214V500
		C611.324,495.832,607.947,492.462,603.786,492.462z"/>
	<path fill="#FFFFFF" d="M490.725,628.137c45.715,0,82.911-37.197,82.911-82.912V364.327c0-45.715-37.197-82.913-82.911-82.913
		c-45.715,0-82.912,37.197-82.912,82.913v180.897C407.812,590.939,445.01,628.137,490.725,628.137z"/>
</g>
</svg>
