<?xml version="1.0" encoding="utf-8"?>
<!-- Generator: Adobe Illustrator 16.0.0, SVG Export Plug-In . SVG Version: 6.00 Build 0)  -->
<!DOCTYPE svg PUBLIC "-//W3C//DTD SVG 1.1//EN" "http://www.w3.org/Graphics/SVG/1.1/DTD/svg11.dtd">
<svg version="1.1" id="Capa_1" xmlns="http://www.w3.org/2000/svg" xmlns:xlink="http://www.w3.org/1999/xlink" x="0px" y="0px"
	 width="1000px" height="1000px" viewBox="0 0 1000 1000" enable-background="new 0 0 1000 1000" xml:space="preserve">
<g>
	<path fill="#FFFFFF" d="M324.866,593.548l58.342,58.336c31.195-31.201,72.673-48.382,116.795-48.382
		c44.118,0,85.598,17.181,116.793,48.382l58.342-58.336c-46.78-46.781-108.977-72.547-175.135-72.547
		C433.84,521.001,371.645,546.765,324.866,593.548z"/>
	<path fill="#FFFFFF" d="M500.001,684.923c-21.438,0-42.872,8.177-59.23,24.528c-0.572,0.573-1.109,1.163-1.661,1.746l60.886,61.068
		l61.043-60.898c-0.601-0.643-1.194-1.289-1.817-1.913C542.868,693.099,521.436,684.923,500.001,684.923z"/>
</g>
</svg>
